<svg width="1111" height="252" viewBox="0 0 1111 252" fill="none" xmlns="http://www.w3.org/2000/svg">
<rect width="1111" height="252" rx="15" fill="#E7816B"/>
<mask id="mask0" mask-type="alpha" maskUnits="userSpaceOnUse" x="0" y="0" width="1111" height="252">
<rect width="1111" height="252" rx="15" fill="white"/>
</mask>
<g mask="url(#mask0)">
<circle opacity="0.308943" r="146" transform="matrix(0 -1 -1 0 88 272)" fill="url(#paint0_linear)"/>
<circle opacity="0.308943" r="146" transform="matrix(-1 0 0 1 672 272)" fill="url(#paint1_linear)"/>
<circle opacity="0.308943" r="146" transform="matrix(0 1 1 0 380 272)" fill="url(#paint2_linear)"/>
<circle opacity="0.308943" r="146" transform="matrix(0 -1 -1 0 672 -20)" fill="url(#paint3_linear)"/>
<circle opacity="0.308943" r="146" transform="matrix(-1 0 0 1 380 -20)" fill="url(#paint4_linear)"/>
</g>
<defs>
<linearGradient id="paint0_linear" x1="0" y1="292" x2="292" y2="292" gradientUnits="userSpaceOnUse">
<stop stop-color="#5D0202" stop-opacity="0.01"/>
<stop offset="1" stop-color="#5D0202" stop-opacity="0.497569"/>
</linearGradient>
<linearGradient id="paint1_linear" x1="0" y1="292" x2="292" y2="292" gradientUnits="userSpaceOnUse">
<stop stop-color="#5D0202" stop-opacity="0.01"/>
<stop offset="1" stop-color="#5D0202" stop-opacity="0.497569"/>
</linearGradient>
<linearGradient id="paint2_linear" x1="0" y1="292" x2="292" y2="292" gradientUnits="userSpaceOnUse">
<stop stop-color="#5D0202" stop-opacity="0.01"/>
<stop offset="1" stop-color="#5D0202" stop-opacity="0.497569"/>
</linearGradient>
<linearGradient id="paint3_linear" x1="0" y1="292" x2="292" y2="292" gradientUnits="userSpaceOnUse">
<stop stop-color="#5D0202" stop-opacity="0.01"/>
<stop offset="1" stop-color="#5D0202" stop-opacity="0.497569"/>
</linearGradient>
<linearGradient id="paint4_linear" x1="0" y1="292" x2="292" y2="292" gradientUnits="userSpaceOnUse">
<stop stop-color="#5D0202" stop-opacity="0.01"/>
<stop offset="1" stop-color="#5D0202" stop-opacity="0.497569"/>
</linearGradient>
</defs>
</svg>
